<svg xmlns="http://www.w3.org/2000/svg" viewBox="0 0 364.01 82.28"><defs><style>.cls-1{fill:#fff;}.cls-2{fill:#14d7e6;}</style></defs><g id="Layer_2" data-name="Layer 2"><g id="Layer_1-2" data-name="Layer 1"><path class="cls-1" d="M13.26,80.62H0V1.52H13.7L52.14,58.45V1.52H65.4v79.1H51.58L13.26,23.81Z"/><path class="cls-1" d="M212.7,80.62l-16-31.19H178.5V80.62H165V1.52h34.76c17.49,0,26.07,10.14,26.07,24,0,10.47-5,18.94-15.49,22.28l18.16,32.86ZM199.89,14H178.5V37h21.39c8.35,0,12.37-4.68,12.37-11.47S208.24,14,199.89,14Z"/><path class="cls-1" d="M290.78,14.34H267.83V80.62H254.34V14.34h-23V1.52h59.39Z"/><path class="cls-1" d="M364,80.62H350.53V46.76H313V80.62H299.5V1.52H313V34.28h37.55V1.52H364Z"/><path class="cls-1" d="M115,0a41.14,41.14,0,1,0,41.14,41.14A41.14,41.14,0,0,0,115,0Zm0,68.26a27.12,27.12,0,1,1,27.12-27.12A27.12,27.12,0,0,1,115,68.26Z"/><polygon class="cls-2" points="103.45 52.2 115.04 48.36 126.61 52.2 115.04 25.39 103.45 52.2"/></g></g></svg>